<?xml version="1.0" standalone="no"?>
<!DOCTYPE svg PUBLIC "-//W3C//DTD SVG 20010904//EN"
 "http://www.w3.org/TR/2001/REC-SVG-20010904/DTD/svg10.dtd">
<svg version="1.0" xmlns="http://www.w3.org/2000/svg"
 width="1128.000000pt" height="564.000000pt" viewBox="0 0 1128.000000 564.000000"
 preserveAspectRatio="xMidYMid meet">

<g transform="translate(0.000000,564.000000) scale(0.100000,-0.100000)"
fill="#000000" stroke="none">
<path d="M0 2820 l0 -2820 5640 0 5640 0 0 2076 c0 1142 -3 2074 -7 2072 -117
-54 -144 -69 -149 -82 -3 -9 -11 -16 -18 -16 -6 0 -58 -25 -116 -54 -58 -30
-124 -64 -147 -76 -24 -12 -43 -26 -43 -31 0 -5 -9 -9 -20 -9 -11 0 -23 -6
-26 -14 -3 -8 -12 -12 -20 -9 -8 3 -14 0 -14 -6 0 -5 -18 -16 -40 -22 -22 -7
-40 -16 -40 -21 0 -4 -9 -8 -19 -8 -21 0 -76 -27 -99 -47 -7 -7 -20 -13 -28
-13 -8 0 -14 -4 -14 -10 0 -5 -11 -10 -25 -10 -13 0 -28 -6 -32 -13 -8 -12
-36 -25 -145 -67 -26 -10 -60 -27 -75 -37 -36 -25 -109 -54 -117 -46 -3 4 -6
2 -6 -4 0 -6 -8 -13 -17 -17 -18 -5 -53 -26 -63 -36 -7 -7 -103 -47 -157 -67
-24 -8 -43 -19 -43 -24 0 -5 -9 -9 -20 -9 -11 0 -20 -4 -20 -9 0 -6 -26 -18
-57 -28 -32 -9 -60 -20 -63 -24 -7 -10 -123 -56 -159 -64 -17 -4 -35 -14 -40
-23 -5 -9 -13 -16 -18 -16 -13 2 -35 -6 -85 -33 -27 -13 -48 -22 -48 -18 0 3
-22 -6 -50 -20 -27 -14 -50 -23 -50 -19 0 3 -26 -8 -57 -25 -31 -17 -62 -31
-68 -31 -6 0 -41 -16 -78 -35 -37 -19 -71 -35 -76 -35 -5 0 -45 -16 -88 -36
-43 -20 -103 -47 -133 -61 -84 -38 -125 -58 -130 -63 -11 -11 -157 -79 -183
-86 -18 -4 -24 -9 -17 -14 11 -7 -7 -16 -53 -26 -11 -2 -28 -11 -40 -19 -12
-8 -28 -15 -35 -15 -8 0 -27 -9 -43 -21 -16 -11 -29 -17 -29 -12 0 4 -5 0 -11
-10 -5 -9 -15 -17 -21 -17 -6 0 -48 -18 -92 -39 -45 -22 -108 -51 -141 -66
-33 -14 -76 -34 -95 -44 -19 -10 -46 -22 -60 -26 -28 -8 -101 -41 -277 -126
-66 -33 -128 -59 -136 -59 -8 0 -20 -7 -27 -15 -7 -8 -18 -15 -24 -15 -6 0
-48 -18 -94 -40 -45 -22 -85 -40 -88 -40 -6 0 -167 -76 -309 -146 -50 -24 -95
-44 -101 -44 -7 0 -17 -7 -24 -15 -7 -8 -15 -13 -19 -10 -4 2 -22 -5 -40 -16
-17 -10 -59 -30 -92 -44 -33 -13 -82 -37 -107 -53 -26 -16 -60 -32 -77 -36
-16 -4 -37 -13 -45 -20 -8 -6 -44 -25 -80 -41 -36 -17 -71 -36 -78 -42 -7 -7
-21 -13 -30 -13 -9 0 -27 -11 -41 -24 -15 -13 -50 -31 -78 -42 -29 -10 -53
-21 -53 -25 0 -4 -18 -10 -40 -14 -22 -4 -40 -12 -40 -19 0 -7 -19 -18 -42
-25 -66 -19 -117 -45 -118 -58 0 -7 -6 -10 -13 -7 -8 3 -20 -2 -27 -11 -7 -8
-37 -22 -66 -31 -30 -8 -54 -20 -54 -25 0 -5 -9 -9 -20 -9 -26 0 -110 -52
-110 -67 0 -9 -16 -13 -45 -13 -28 0 -44 -4 -43 -11 2 -7 -19 -21 -47 -32 -27
-12 -51 -25 -53 -29 -2 -4 -23 -8 -48 -8 -35 0 -42 -3 -38 -15 4 -11 2 -13 -9
-9 -14 5 -57 -23 -57 -37 0 -4 8 -10 18 -13 14 -4 14 -5 -3 -4 -76 2 -105 -3
-105 -17 0 -8 -5 -15 -10 -15 -6 0 -22 -12 -37 -26 -25 -25 -25 -25 -40 -5
-18 26 -33 26 -61 1 -12 -12 -37 -21 -59 -22 l-38 -1 45 -6 45 -7 -75 -13
c-41 -8 -97 -17 -125 -21 -38 -6 -42 -8 -17 -9 20 -1 32 -6 32 -15 0 -19 -22
-26 -81 -26 -39 0 -56 -5 -77 -25 -23 -21 -34 -24 -72 -20 -25 3 -70 1 -100
-4 l-55 -9 85 -1 c106 -1 96 -19 -13 -22 -55 -1 -83 -7 -94 -17 -12 -12 -19
-13 -34 -4 -15 10 -19 9 -19 -2 0 -8 6 -16 13 -19 7 -2 8 -8 3 -13 -5 -5 -11
-4 -13 4 -6 16 -24 15 -59 -3 -32 -17 -100 -20 -106 -6 -2 6 -18 7 -38 2 -30
-6 -35 -11 -38 -37 -3 -29 -2 -30 38 -26 25 3 40 0 40 -7 0 -6 -17 -11 -39
-11 -22 0 -43 -4 -46 -10 -3 -5 -40 -10 -81 -10 -67 0 -74 -2 -74 -20 0 -22
-10 -26 -27 -9 -14 14 -53 2 -53 -17 0 -10 -12 -14 -40 -14 -34 0 -40 -3 -40
-21 0 -11 -4 -17 -10 -14 -20 13 -9 35 23 44 17 5 26 10 19 10 -7 1 -11 5 -8
9 3 5 -16 9 -42 10 -40 0 -44 -2 -29 -12 24 -18 21 -28 -5 -24 -17 2 -25 13
-32 41 -10 39 -26 50 -26 17 0 -15 -7 -20 -25 -20 -18 0 -25 -5 -25 -20 0 -17
-7 -20 -40 -20 -22 0 -40 -4 -40 -10 0 -5 -18 -10 -40 -10 -38 0 -40 -2 -40
-30 0 -28 2 -30 40 -30 22 0 40 -4 40 -9 0 -15 -80 -18 -92 -4 -13 16 -40 17
-56 1 -9 -9 -12 -7 -12 10 0 19 -5 22 -40 22 -22 0 -40 -4 -40 -10 0 -6 -33
-10 -80 -10 -73 0 -80 -2 -80 -20 0 -16 -7 -20 -30 -20 -16 0 -30 5 -30 10 0
6 9 10 20 10 11 0 20 5 20 10 0 6 -18 10 -40 10 -22 0 -40 5 -40 10 0 6 5 10
10 10 6 0 10 5 10 10 0 6 -33 10 -80 10 -73 0 -80 -2 -80 -20 0 -27 -27 -26
-35 2 -6 15 -1 26 16 38 31 24 93 43 97 30 5 -13 82 -13 82 0 0 6 -18 10 -40
10 -33 0 -40 3 -40 20 0 16 7 20 30 20 17 0 30 -4 30 -10 0 -5 23 -10 50 -10
41 0 50 3 49 18 0 10 -3 12 -6 5 -7 -19 -53 -16 -53 2 0 8 6 15 14 15 9 0 17
15 21 40 9 51 23 51 28 0 l4 -40 -1 42 -1 43 -40 -4 c-22 -1 -43 -7 -46 -12
-8 -13 -39 0 -39 16 0 8 4 17 10 20 18 11 10 22 -20 29 -35 7 -40 26 -7 26 13
0 33 9 45 20 12 11 26 20 32 20 6 0 13 7 16 15 4 8 12 15 19 15 8 0 11 8 8 20
-4 16 -11 18 -32 13 -14 -3 -27 -10 -29 -15 -2 -4 -15 -8 -28 -8 -14 0 -22 4
-19 10 3 6 15 10 26 10 10 0 19 6 19 14 0 8 9 18 20 21 11 3 20 11 20 16 0 5
6 9 14 9 7 0 30 12 51 26 22 14 61 33 88 42 28 9 45 18 38 20 -13 4 -15 32 -2
32 5 0 11 -6 14 -12 2 -7 8 -10 12 -6 4 4 0 14 -8 23 -10 9 -18 11 -22 5 -3
-5 -17 -10 -31 -10 -13 0 -33 -9 -44 -20 -11 -11 -31 -20 -45 -20 -18 0 -25
-5 -25 -20 0 -17 -7 -20 -40 -20 -22 0 -40 5 -40 10 0 6 7 10 15 10 22 0 65
22 60 31 -3 4 3 5 13 2 10 -2 24 3 31 11 8 9 20 16 27 16 8 0 14 4 14 9 0 5
16 15 35 22 26 10 34 18 30 30 -4 13 3 18 29 23 30 6 72 36 50 36 -5 0 -2 4 6
10 8 5 12 12 9 15 -4 3 -58 -20 -122 -51 -141 -67 -179 -68 -46 0 175 89 207
109 201 125 -4 11 0 13 18 8 15 -4 33 1 51 14 15 10 34 19 42 19 8 0 20 7 27
15 7 8 19 15 26 15 17 0 18 17 2 23 -7 2 -10 7 -6 11 3 4 15 2 25 -5 16 -9 26
-8 54 6 30 16 32 19 14 25 -14 6 -10 7 17 7 37 -1 111 40 102 55 -3 4 -18 -2
-34 -14 -17 -12 -32 -19 -35 -16 -4 3 8 16 26 29 26 18 35 20 51 10 10 -6 24
-9 29 -5 8 4 8 9 -1 14 -7 5 -3 12 13 23 15 10 29 12 38 6 11 -7 9 -9 -8 -9
-13 0 -23 -4 -23 -10 0 -14 6 -13 43 7 29 15 30 17 12 23 -18 7 -19 8 -2 15 9
4 24 2 31 -4 9 -8 17 -8 20 -2 3 5 0 11 -6 14 -9 3 -7 10 7 21 24 19 52 21 57
4 4 -10 9 -8 21 3 9 9 13 19 10 23 -4 3 2 13 13 21 17 13 17 14 2 15 -10 0
-18 -4 -18 -10 0 -5 -6 -10 -14 -10 -12 0 -516 -251 -598 -298 -21 -12 -38
-20 -38 -18 0 2 -34 -13 -76 -35 -82 -43 -84 -43 -84 -30 0 5 10 13 23 17 12
4 24 9 27 13 9 11 42 29 202 108 137 68 156 81 151 98 -5 17 -4 18 10 7 13
-11 26 -8 79 19 35 17 65 35 66 40 2 5 9 9 16 9 14 0 78 30 86 40 3 3 34 20
70 38 43 20 57 31 43 32 -30 0 -30 16 -1 24 34 9 38 7 32 -8 -5 -13 -2 -13 20
-3 17 8 21 13 11 15 -8 2 -15 8 -15 13 0 12 24 11 37 -2 7 -7 20 -4 44 11 31
20 20 23 -23 5 -11 -4 -18 -3 -18 4 0 6 9 11 20 11 11 0 20 4 20 8 0 11 51 35
58 28 3 -3 -5 -9 -18 -14 -21 -8 -21 -9 -5 -16 11 -4 25 0 35 9 9 8 23 15 30
15 9 0 7 5 -6 16 -18 15 -18 15 10 9 16 -3 43 -1 59 6 27 11 28 14 11 21 -15
7 -14 7 6 3 33 -6 176 65 157 78 -8 6 -6 7 7 3 16 -5 78 19 136 53 8 5 80 41
160 79 80 38 201 97 270 130 238 115 405 191 435 197 17 4 -67 -41 -185 -99
-447 -221 -551 -274 -543 -279 4 -3 24 3 43 14 19 10 42 21 50 24 8 4 23 11
32 16 10 5 19 5 22 0 5 -8 -24 -20 -47 -20 -13 0 -40 -32 -33 -39 4 -3 10 -2
14 4 4 6 21 15 37 21 17 6 46 20 65 33 34 21 34 22 7 17 -15 -2 -30 -1 -32 4
-3 4 15 6 41 4 36 -3 44 -1 40 10 -3 9 0 12 10 8 16 -6 235 97 229 107 -2 4 2
7 10 7 16 0 63 19 180 74 44 20 91 40 105 44 14 4 27 10 30 14 10 13 48 30 54
24 6 -7 -25 -24 -99 -56 -64 -27 -117 -62 -108 -71 4 -4 0 -4 -9 -1 -15 6
-215 -89 -230 -110 -4 -5 -8 -7 -8 -3 0 4 -15 -1 -32 -11 -18 -10 -46 -21 -63
-26 -16 -4 -24 -10 -18 -12 21 -8 14 -25 -7 -18 -11 3 -36 -2 -56 -11 -21 -10
-32 -20 -25 -22 6 -2 23 3 36 12 31 20 57 21 31 1 -38 -28 0 -15 106 39 59 29
104 57 100 61 -4 5 -2 5 4 2 15 -9 96 27 86 38 -4 4 1 5 11 2 24 -9 44 2 26
14 -10 6 -5 9 14 9 19 0 26 4 21 12 -4 7 -3 8 5 4 12 -8 109 26 146 51 11 7
23 13 28 13 15 0 -18 -27 -56 -45 -29 -13 -35 -20 -25 -27 10 -8 9 -9 -3 -5
-16 5 -172 -65 -213 -96 -18 -13 -18 -14 9 -21 15 -4 30 -5 33 -1 3 3 0 5 -6
5 -7 0 -12 5 -12 11 0 6 7 8 15 5 18 -7 54 11 73 37 8 10 21 16 29 13 8 -3 26
-3 40 0 19 5 22 9 11 16 -9 7 -7 8 8 3 13 -3 28 0 37 10 9 8 20 15 26 15 6 0
10 3 10 7 -3 19 2 27 10 15 6 -10 13 -10 37 2 57 29 119 54 124 49 2 -2 -2 -8
-10 -14 -13 -8 -13 -10 0 -20 12 -8 11 -9 -6 -4 -14 3 -35 -2 -55 -14 -47 -28
-110 -58 -134 -63 -17 -4 -16 -6 8 -12 29 -9 93 3 68 12 -16 6 74 51 104 51
11 1 29 7 40 14 11 7 36 18 57 25 31 11 40 10 69 -6 43 -24 47 -40 13 -52 -18
-7 -24 -14 -17 -21 11 -11 87 15 156 52 20 11 43 19 50 16 18 -6 -73 -67 -100
-67 -15 0 -22 -4 -17 -11 4 -7 20 -8 43 -3 20 4 44 7 54 6 9 0 17 2 17 6 0 12
57 42 79 42 26 0 40 -28 20 -41 -10 -6 -6 -9 14 -9 15 0 27 5 27 10 0 6 8 18
19 29 17 17 24 17 84 6 59 -11 65 -11 60 4 -5 13 -3 14 8 3 16 -14 49 -16 49
-2 0 6 5 10 11 10 6 0 9 -7 6 -14 -4 -10 -1 -13 9 -9 7 3 14 9 14 14 0 14 38
11 43 -3 2 -7 8 -10 12 -6 4 4 2 14 -5 23 -10 12 -10 15 4 15 9 0 16 -8 16
-17 0 -15 2 -14 15 3 13 18 14 18 15 1 0 -10 5 -15 10 -12 6 4 8 11 5 16 -4 5
-1 9 4 9 6 0 11 -6 11 -12 1 -7 7 -2 14 11 10 18 15 21 20 10 5 -11 7 -11 12
-1 4 8 10 10 17 3 7 -5 49 -11 93 -13 62 -2 80 0 77 10 -3 6 0 12 6 12 6 0 11
-4 11 -10 0 -5 10 -10 23 -10 21 1 21 1 3 15 -18 14 -18 14 0 14 43 -1 130 15
153 29 24 13 24 13 4 9 -13 -3 -26 -1 -29 4 -4 8 113 15 154 10 6 -1 12 3 12
10 0 7 -11 9 -34 5 -20 -4 -37 -2 -41 4 -4 6 4 10 19 10 14 0 26 4 26 8 0 5
20 9 45 10 25 0 51 5 58 10 7 6 29 13 49 17 20 4 39 13 42 21 3 8 15 14 26 14
11 0 20 5 20 11 0 8 12 10 35 6 34 -6 44 8 20 25 -5 4 16 8 47 8 36 0 58 5 61
13 4 9 6 9 6 0 1 -21 21 -15 21 6 0 13 10 20 31 25 17 3 28 10 24 16 -3 5 -1
10 5 10 6 0 15 11 20 25 8 20 16 25 44 25 19 0 36 6 39 13 3 9 8 8 22 -3 17
-14 17 -14 4 8 -8 12 -17 22 -21 22 -20 0 -4 22 30 40 20 12 30 19 21 16 -12
-3 -16 2 -16 22 0 15 2 21 4 15 3 -7 16 -13 29 -13 17 0 24 6 24 20 0 11 -4
20 -10 20 -5 0 -10 9 -10 20 0 25 34 27 58 3 16 -16 17 -15 20 5 2 13 8 19 17
15 13 -5 67 29 66 41 -3 29 2 36 25 36 33 0 54 21 54 54 0 24 4 26 40 26 29 0
40 4 40 15 0 9 -6 12 -15 9 -10 -4 -15 0 -15 15 0 22 26 29 32 9 3 -9 9 -8 22
5 9 9 15 21 11 27 -3 6 1 7 9 4 9 -3 16 -1 16 5 0 6 -5 11 -11 11 -8 0 -7 5 1
15 7 9 20 13 27 10 8 -3 22 2 30 11 14 13 14 17 2 25 -11 7 -9 13 11 28 13 11
28 17 33 14 5 -3 8 5 7 18 -5 52 -1 59 30 59 23 0 30 4 30 20 0 16 -7 20 -30
20 -16 0 -30 5 -30 10 0 6 11 10 24 10 38 0 56 10 56 32 0 20 22 48 38 48 11
0 40 31 41 45 1 6 21 10 46 10 l45 0 0 42 c0 23 -4 43 -8 45 -5 2 -7 19 -4 40
4 34 6 36 43 40 21 2 39 0 39 -3 0 -4 10 -5 22 -1 21 5 21 6 2 13 -16 7 -17 8
-1 8 12 1 17 9 17 31 0 17 5 30 10 30 6 0 10 18 10 40 0 36 3 40 25 40 15 0
25 6 25 14 0 7 9 16 20 19 12 3 20 14 20 26 0 12 6 21 13 21 7 0 23 18 37 40
19 31 31 40 52 40 26 0 28 3 28 40 0 22 5 40 10 40 6 0 10 18 10 41 l0 40 53
-1 c90 -3 87 -4 87 40 0 33 3 40 20 40 19 0 23 13 19 58 0 4 10 10 23 14 14 3
-2 6 -39 7 -49 1 -63 4 -63 16 0 12 16 15 80 15 l80 0 0 45 0 45 39 0 c39 0
40 1 46 44 4 24 5 52 2 62 -3 11 -5 0 -6 -23 -1 -36 -4 -43 -21 -43 -17 0 -20
7 -20 40 0 22 5 40 10 40 6 0 10 18 10 40 0 22 5 40 10 40 6 0 10 -9 10 -20 0
-17 7 -20 40 -20 33 0 40 3 40 20 0 13 -7 20 -20 20 -17 0 -20 7 -20 40 0 22
5 40 10 40 6 0 10 18 10 40 0 22 5 40 10 40 6 0 10 -25 10 -55 l0 -55 40 0 40
0 1 43 c1 23 1 45 0 49 0 4 21 10 47 14 43 5 52 11 73 45 13 21 27 39 31 39 5
0 8 8 8 18 0 9 9 23 20 30 11 7 20 17 20 22 0 6 -9 10 -20 10 -11 0 -20 5 -20
10 0 6 -18 10 -40 10 -33 0 -40 3 -40 20 0 17 7 20 40 20 l40 0 0 50 0 50 80
0 c73 0 80 2 80 20 0 17 7 20 40 20 33 0 40 3 40 20 0 17 7 20 40 20 33 0 40
3 40 20 0 17 7 20 40 20 l40 0 0 60 0 60 40 0 c40 0 40 0 40 39 l0 39 80 7 80
7 0 33 c0 32 -2 34 -37 38 -21 2 -3 2 40 -1 l77 -4 0 26 c0 24 4 26 40 26 29
0 40 4 40 15 0 13 -571 15 -5080 15 l-5080 0 0 -2820z m4250 890 c-8 -5 -19
-10 -25 -10 -5 0 -3 5 5 10 8 5 20 10 25 10 6 0 3 -5 -5 -10z m-223 -66 c-3
-3 -12 -4 -19 -1 -8 3 -5 6 6 6 11 1 17 -2 13 -5z m-230 -70 c-3 -3 -12 -4
-19 -1 -8 3 -5 6 6 6 11 1 17 -2 13 -5z m248 -4 c-27 -12 -43 -12 -25 0 8 5
22 9 30 9 10 0 8 -3 -5 -9z m250 0 c-11 -5 -27 -9 -35 -9 -9 0 -8 4 5 9 11 5
27 9 35 9 9 0 8 -4 -5 -9z m-220 -70 c-11 -5 -27 -9 -35 -9 -9 0 -8 4 5 9 11
5 27 9 35 9 9 0 8 -4 -5 -9z m161 -26 c-38 -13 -71 -22 -73 -20 -5 5 107 44
127 44 8 0 -16 -10 -54 -24z m511 20 c-3 -3 -12 -4 -19 -1 -8 3 -5 6 6 6 11 1
17 -2 13 -5z m-257 -14 c-8 -5 -22 -9 -30 -9 -10 0 -8 3 5 9 27 12 43 12 25 0z
m-503 -6 c-3 -3 -12 -4 -19 -1 -8 3 -5 6 6 6 11 1 17 -2 13 -5z m663 -14 c-8
-5 -22 -9 -30 -9 -10 0 -8 3 5 9 27 12 43 12 25 0z m-1045 -20 c-3 -5 -12 -10
-18 -10 -7 0 -6 4 3 10 19 12 23 12 15 0z m735 -9 c-8 -5 -28 -11 -45 -14
l-30 -6 30 14 c34 16 72 21 45 6z m-773 -7 c-3 -3 -12 -4 -19 -1 -8 3 -5 6 6
6 11 1 17 -2 13 -5z m253 1 c0 -6 -73 -25 -78 -20 -2 2 11 8 29 14 41 11 49
12 49 6z m145 -35 c-65 -22 -121 -37 -123 -35 -5 5 208 73 228 73 8 0 -39 -17
-105 -38z m565 30 c-8 -5 -22 -10 -30 -10 -13 0 -13 1 0 10 8 5 22 10 30 10
13 0 13 -1 0 -10z m207 -6 c-3 -3 -12 -4 -19 -1 -8 3 -5 6 6 6 11 1 17 -2 13
-5z m-492 -13 c-6 -4 -23 -11 -40 -14 l-30 -6 30 14 c35 16 54 19 40 6z m445
-1 c-8 -5 -19 -10 -25 -10 -5 0 -3 5 5 10 8 5 20 10 25 10 6 0 3 -5 -5 -10z
m-993 -16 c-3 -3 -12 -4 -19 -1 -8 3 -5 6 6 6 11 1 17 -2 13 -5z m697 -9 c-17
-8 -44 -16 -60 -20 -16 -3 -6 4 21 14 57 22 86 26 39 6z m-304 -26 c-47 -15
-89 -27 -94 -26 -11 4 143 55 164 55 8 0 -23 -13 -70 -29z m740 27 c0 -2 -9
-6 -20 -9 -11 -3 -18 -1 -14 4 5 9 34 13 34 5z m-1210 -10 c0 -2 -7 -7 -16
-10 -8 -3 -12 -2 -9 4 6 10 25 14 25 6z m950 -6 c-8 -5 -19 -10 -25 -10 -5 0
-3 5 5 10 8 5 20 10 25 10 6 0 3 -5 -5 -10z m-271 -15 c-9 -8 -672 -235 -676
-231 -2 2 22 13 54 24 32 11 168 58 303 105 135 47 256 90 270 95 26 11 57 16
49 7z m56 -59 c-99 -35 -209 -75 -245 -89 -36 -14 -139 -51 -230 -82 -91 -31
-214 -75 -273 -97 -59 -22 -110 -38 -112 -36 -5 4 36 20 290 110 77 28 244 87
370 133 291 105 346 123 365 124 8 0 -66 -29 -165 -63z m382 58 c-3 -3 -12 -4
-19 -1 -8 3 -5 6 6 6 11 1 17 -2 13 -5z m-938 -8 c-2 -2 -17 -6 -34 -10 -22
-5 -26 -4 -15 4 14 9 59 15 49 6z m1096 -6 c-27 -12 -43 -12 -25 0 8 5 22 9
30 9 10 0 8 -3 -5 -9z m-1049 -61 c-77 -27 -143 -48 -148 -47 -10 4 251 97
272 97 8 0 -48 -23 -124 -50z m804 47 c0 -6 -93 -37 -97 -32 -2 2 15 11 39 19
47 17 58 19 58 13z m-975 -21 c-16 -8 -37 -14 -45 -14 -8 0 1 7 20 14 46 18
64 17 25 0z m1135 5 c-8 -5 -19 -10 -25 -10 -5 0 -3 5 5 10 8 5 20 10 25 10 6
0 3 -5 -5 -10z m-359 -56 c-52 -19 -96 -33 -98 -31 -5 6 158 66 177 66 8 0
-27 -16 -79 -35z m244 17 c-10 -9 -448 -174 -800 -302 -104 -38 -199 -74 -210
-79 -39 -18 -260 -100 -270 -100 -24 1 365 150 1185 453 111 41 107 39 95 28z
m215 5 c0 -2 -9 -6 -20 -9 -11 -3 -18 -1 -14 4 5 9 34 13 34 5z m-1353 -12
c-3 -3 -12 -4 -19 -1 -8 3 -5 6 6 6 11 1 17 -2 13 -5z m1273 -18 c0 -6 -93
-37 -97 -32 -2 2 15 11 39 19 47 17 58 19 58 13z m180 -6 c-8 -5 -19 -10 -25
-10 -5 0 -3 5 5 10 8 5 20 10 25 10 6 0 3 -5 -5 -10z m-1361 -24 c-7 -7 -114
-46 -124 -45 -5 0 17 11 50 24 57 23 84 30 74 21z m689 -1 c-4 -5 -163 -65
-288 -110 -36 -13 -128 -46 -205 -74 -77 -28 -144 -51 -150 -51 -20 1 42 25
580 221 50 18 73 23 63 14z m592 -5 c-8 -5 -19 -10 -25 -10 -5 0 -3 5 5 10 8
5 20 10 25 10 6 0 3 -5 -5 -10z m-224 -12 c-11 -6 -40 -19 -65 -28 -25 -10
-89 -34 -141 -54 -361 -140 -863 -326 -867 -322 -2 2 11 9 29 16 18 7 47 19
63 26 17 7 80 31 140 54 61 22 145 54 188 70 42 16 112 43 155 59 162 61 409
155 452 172 52 20 74 23 46 7z m134 -24 c-19 -9 -87 -35 -150 -59 -110 -42
-268 -104 -470 -185 -52 -21 -156 -61 -230 -88 -74 -28 -236 -92 -360 -142
-247 -101 -264 -107 -239 -91 46 30 522 219 1249 497 80 31 159 62 175 69 17
8 37 14 45 14 8 0 -1 -7 -20 -15z m-1340 -14 c-8 -5 -19 -10 -25 -10 -5 0 -3
5 5 10 8 5 20 10 25 10 6 0 3 -5 -5 -10z m1365 -51 c-22 -10 -47 -18 -55 -18
-8 0 5 8 30 19 59 24 76 24 25 -1z m-1288 -5 c-3 -3 -12 -4 -19 -1 -8 3 -5 6
6 6 11 1 17 -2 13 -5z m1208 -22 c-6 -5 -71 -32 -145 -62 -74 -29 -148 -59
-165 -66 -16 -7 -95 -38 -175 -69 -80 -31 -159 -62 -175 -70 -28 -13 -177 -73
-290 -117 -27 -10 -63 -25 -80 -33 -81 -36 -308 -125 -312 -122 -2 3 11 10 29
17 18 8 56 24 83 36 28 12 73 31 100 42 28 11 129 52 225 91 196 81 534 215
715 285 66 26 134 53 150 61 34 16 54 20 40 7z m176 -7 c-18 -8 -38 -15 -45
-15 -15 1 46 28 64 29 8 0 0 -6 -19 -14z m-66 -24 c-6 -5 -21 -12 -35 -15
l-25 -7 25 15 c28 17 50 21 35 7z m-70 -31 c-3 -5 -14 -10 -23 -10 -15 0 -15
2 -2 10 20 13 33 13 25 0z m180 0 c-3 -5 -12 -10 -18 -10 -7 0 -6 4 3 10 19
12 23 12 15 0z m-238 -21 c-10 -6 -125 -53 -255 -105 -130 -52 -250 -101 -267
-109 -52 -23 -514 -215 -519 -215 -3 0 -29 -11 -58 -24 -87 -40 -231 -96 -235
-92 -2 2 24 15 59 29 35 14 90 37 122 52 32 15 75 33 95 40 20 8 74 30 121 50
47 20 112 48 145 61 33 14 74 32 90 40 39 19 191 81 390 159 88 34 194 76 235
93 75 31 111 40 77 21z m168 -6 c-16 -9 -75 -34 -130 -55 -55 -22 -113 -45
-130 -53 -16 -8 -106 -45 -200 -84 -174 -71 -226 -93 -305 -129 -25 -11 -83
-36 -130 -55 -83 -34 -391 -164 -538 -227 -41 -17 -76 -30 -78 -28 -2 3 13 11
34 20 140 60 193 83 237 103 28 13 111 49 185 80 74 31 158 67 185 80 182 81
870 362 890 364 6 0 -3 -7 -20 -16z m-1257 -18 c-3 -3 -36 -17 -74 -31 -38
-13 -64 -21 -59 -16 18 17 149 62 133 47z m1372 -5 c-8 -5 -19 -10 -25 -10 -5
0 -3 5 5 10 8 5 20 10 25 10 6 0 3 -5 -5 -10z m-90 -40 c-8 -5 -22 -9 -30 -9
-10 0 -8 3 5 9 27 12 43 12 25 0z m170 0 c-8 -5 -19 -10 -25 -10 -5 0 -3 5 5
10 8 5 20 10 25 10 6 0 3 -5 -5 -10z m-1615 -20 c-11 -5 -27 -9 -35 -9 -9 0
-8 4 5 9 11 5 27 9 35 9 9 0 8 -4 -5 -9z m1390 1 c-6 -5 -32 -18 -60 -29 -60
-24 -269 -114 -343 -148 -29 -13 -55 -24 -58 -24 -5 0 -179 -75 -279 -120 -22
-10 -101 -43 -175 -75 -74 -31 -148 -63 -165 -70 -46 -21 -282 -124 -358 -157
-38 -16 -71 -27 -74 -25 -2 3 6 8 19 12 13 4 53 22 89 40 37 19 94 45 127 59
34 14 85 37 114 50 85 38 430 188 463 200 17 6 35 14 40 17 6 4 82 37 170 73
88 37 169 71 180 76 11 5 76 32 145 60 69 28 134 55 145 60 27 12 31 12 20 1z
m300 -21 c-3 -5 -12 -10 -18 -10 -7 0 -6 4 3 10 19 12 23 12 15 0z m-195 -10
c-8 -5 -19 -10 -25 -10 -5 0 -3 5 5 10 8 5 20 10 25 10 6 0 3 -5 -5 -10z m-41
-14 c-2 -2 -62 -30 -134 -62 -71 -31 -175 -77 -230 -101 -139 -62 -360 -158
-555 -242 -91 -40 -174 -76 -185 -81 -205 -94 -510 -228 -513 -225 -4 3 78 44
138 69 8 3 22 10 30 15 8 6 58 29 110 52 52 23 122 54 155 69 115 52 333 148
535 235 80 34 231 99 335 144 105 45 213 92 240 106 44 21 86 33 74 21z m171
0 c0 -2 -7 -7 -16 -10 -8 -3 -12 -2 -9 4 6 10 25 14 25 6z m-80 -30 c0 -3 -4
-8 -10 -11 -5 -3 -10 -1 -10 4 0 6 5 11 10 11 6 0 10 -2 10 -4z m-67 -35 c-23
-11 -56 -26 -75 -34 -18 -8 -58 -26 -88 -40 -30 -14 -77 -35 -105 -47 -27 -12
-68 -30 -90 -40 -22 -10 -87 -40 -145 -65 -58 -26 -127 -57 -155 -70 -27 -12
-129 -57 -225 -100 -96 -42 -200 -88 -230 -102 -30 -14 -91 -41 -135 -60 -44
-19 -101 -45 -126 -59 -51 -26 -87 -33 -54 -10 11 7 92 46 180 86 88 39 183
82 210 95 28 12 88 39 135 59 47 21 108 48 135 61 28 12 124 55 215 95 91 40
203 89 250 110 47 21 119 52 160 69 41 18 93 40 115 51 22 10 47 19 55 19 8 0
-4 -8 -27 -18z m142 -11 c-3 -5 -11 -10 -16 -10 -6 0 -7 5 -4 10 3 6 11 10 16
10 6 0 7 -4 4 -10z m-1735 -4 c0 -2 -7 -7 -16 -10 -8 -3 -12 -2 -9 4 6 10 25
14 25 6z m219 -1 c-9 -8 -153 -64 -156 -61 -2 2 29 18 69 35 68 28 98 37 87
26z m1446 -25 c-22 -10 -67 -31 -100 -46 -33 -15 -100 -46 -150 -69 -106 -49
-141 -65 -215 -98 -61 -27 -162 -74 -257 -118 -34 -16 -64 -29 -67 -29 -3 0
-42 -17 -88 -39 -46 -21 -127 -59 -182 -85 -54 -25 -100 -46 -102 -46 -2 0
-56 -25 -119 -55 -64 -30 -118 -55 -121 -55 -2 0 -53 -23 -112 -51 -59 -28
-136 -64 -172 -81 -36 -16 -75 -35 -87 -40 -13 -6 -25 -9 -28 -6 -3 2 28 19
67 37 40 17 80 36 88 41 19 13 173 86 330 157 30 14 89 41 130 60 41 19 98 45
125 58 28 13 94 44 149 69 54 25 100 46 102 46 2 0 45 20 96 44 51 24 134 60
183 80 50 21 101 43 115 51 21 11 97 45 340 152 82 36 95 42 105 42 6 0 -8 -9
-30 -19z m-1725 0 c-8 -5 -19 -10 -25 -10 -5 0 -3 5 5 10 8 5 20 10 25 10 6 0
3 -5 -5 -10z m1880 -4 c0 -2 -7 -7 -16 -10 -8 -3 -12 -2 -9 4 6 10 25 14 25 6z
m-1780 -46 c-8 -5 -22 -9 -30 -9 -10 0 -8 3 5 9 27 12 43 12 25 0z m1685 0
c-3 -5 -10 -10 -15 -10 -8 0 -70 -27 -205 -90 -33 -16 -104 -49 -159 -74 -54
-25 -100 -46 -102 -46 -2 0 -56 -25 -119 -55 -64 -30 -118 -55 -120 -55 -5 0
-137 -61 -293 -136 -75 -36 -212 -101 -306 -144 -94 -43 -229 -106 -301 -140
-261 -125 -310 -147 -335 -154 -24 -7 405 209 506 254 79 36 181 84 304 143
202 96 313 148 400 187 47 21 114 51 150 68 73 33 329 148 375 167 17 7 66 29
110 48 70 30 102 43 113 46 2 1 0 -3 -3 -9z m-1740 -20 c-3 -5 -12 -10 -18
-10 -7 0 -6 4 3 10 19 12 23 12 15 0z m1799 -25 c-10 -8 -22 -15 -26 -15 -7 0
-119 -51 -243 -110 -44 -21 -125 -59 -180 -85 -55 -25 -137 -64 -183 -86 -45
-21 -85 -39 -87 -39 -5 0 -73 -33 -459 -219 -93 -45 -205 -99 -250 -120 -181
-85 -553 -262 -608 -291 -21 -10 -38 -15 -38 -11 0 5 26 20 58 35 31 14 82 39
112 55 30 16 69 36 85 44 17 8 53 26 80 40 28 14 91 46 142 70 50 25 89 48 85
53 -4 4 -2 4 5 0 7 -4 20 -2 30 4 10 5 83 41 163 79 80 38 234 112 344 165
109 53 200 96 203 96 4 0 147 66 363 167 52 25 115 53 140 63 42 17 168 73
235 105 39 19 54 19 29 0z m22 -60 c-8 -8 -18 -15 -21 -15 -8 0 -213 -95 -445
-207 -96 -47 -204 -98 -240 -115 -91 -43 -380 -183 -605 -294 -105 -52 -196
-94 -203 -94 -7 0 -12 -3 -12 -8 0 -4 -15 -13 -32 -21 -56 -23 -196 -90 -346
-163 -78 -39 -146 -68 -149 -64 -3 3 -4 7 -2 9 31 19 1275 627 1284 627 2 0
69 32 149 70 81 39 149 70 151 70 3 0 55 24 117 54 136 65 205 96 278 127 30
12 59 26 65 31 16 14 27 9 11 -7z m234 -35 c0 -5 -5 -10 -11 -10 -5 0 -7 5 -4
10 3 6 8 10 11 10 2 0 4 -4 4 -10z m-2020 -40 c-8 -5 -19 -10 -25 -10 -5 0 -3
5 5 10 8 5 20 10 25 10 6 0 3 -5 -5 -10z m1745 -20 c-33 -15 -109 -52 -170
-81 -60 -28 -111 -56 -113 -60 -2 -5 -10 -9 -18 -9 -16 0 -234 -106 -939 -455
-225 -112 -470 -233 -543 -269 -74 -36 -139 -66 -147 -66 -7 0 -15 -7 -19 -15
-3 -8 -9 -14 -13 -13 -10 3 -76 -23 -83 -33 -3 -4 -19 -10 -35 -14 -27 -6 -26
-5 10 16 86 48 326 173 445 230 69 33 132 64 140 70 8 5 41 22 73 36 48 22 56
29 40 35 -13 6 -10 7 9 3 19 -4 38 3 64 20 20 14 41 25 45 25 5 0 122 56 261
124 341 167 629 306 633 306 2 0 64 29 137 64 154 74 247 114 268 115 8 0 -12
-13 -45 -29z m200 20 c-3 -5 -18 -10 -33 -9 l-27 1 25 8 c35 11 42 11 35 0z
m1588 -7 c-7 -2 -21 -2 -30 0 -10 3 -4 5 12 5 17 0 24 -2 18 -5z m-3583 -13
c-8 -5 -19 -10 -25 -10 -5 0 -3 5 5 10 8 5 20 10 25 10 6 0 3 -5 -5 -10z
m2165 -39 c-6 -5 -21 -11 -35 -14 -14 -2 -19 -2 -12 0 6 3 12 9 12 14 0 5 10
9 22 9 14 0 18 -4 13 -9z m-2120 -31 c-3 -5 -11 -10 -16 -10 -6 0 -7 5 -4 10
3 6 11 10 16 10 6 0 7 -4 4 -10z m2185 0 c0 -5 -2 -10 -4 -10 -3 0 -8 5 -11
10 -3 6 -1 10 4 10 6 0 11 -4 11 -10z m287 4 c-3 -3 -12 -4 -19 -1 -8 3 -5 6
6 6 11 1 17 -2 13 -5z m-451 -13 c-8 -12 -46 -21 -46 -11 0 5 10 11 23 13 12
2 23 5 25 6 2 0 1 -3 -2 -8z m120 -16 c-21 -16 -32 -13 -21 4 3 6 14 11 23 11
15 -1 15 -2 -2 -15z m384 -19 c0 -11 -19 -15 -25 -6 -3 5 1 10 9 10 9 0 16 -2
16 -4z m-160 -16 c0 -5 -4 -10 -10 -10 -5 0 -10 5 -10 10 0 6 5 10 10 10 6 0
10 -4 10 -10z m-37 -17 c-7 -2 -19 -2 -25 0 -7 3 -2 5 12 5 14 0 19 -2 13 -5z
m275 0 c-10 -2 -18 -8 -18 -13 0 -5 -7 -7 -15 -4 -23 9 -7 24 23 23 17 -1 21
-3 10 -6z m-2613 -13 c-3 -5 -11 -10 -16 -10 -6 0 -7 5 -4 10 3 6 11 10 16 10
6 0 7 -4 4 -10z m1575 -24 c0 -3 -4 -8 -10 -11 -5 -3 -10 -1 -10 4 0 6 5 11
10 11 6 0 10 -2 10 -4z m-1695 -26 c-3 -5 -12 -10 -18 -10 -7 0 -6 4 3 10 19
12 23 12 15 0z m67 -60 c-18 -11 -38 -20 -45 -20 -14 1 52 39 68 40 6 0 -5 -9
-23 -20z m1338 10 c-8 -5 -19 -10 -25 -10 -5 0 -3 5 5 10 8 5 20 10 25 10 6 0
3 -5 -5 -10z m143 -7 c-7 -2 -19 -2 -25 0 -7 3 -2 5 12 5 14 0 19 -2 13 -5z
m127 -13 c0 -5 -5 -10 -11 -10 -5 0 -7 5 -4 10 3 6 8 10 11 10 2 0 4 -4 4 -10z
m-1700 -30 c-8 -5 -19 -10 -25 -10 -5 0 -3 5 5 10 8 5 20 10 25 10 6 0 3 -5
-5 -10z m1637 4 c-3 -3 -12 -4 -19 -1 -8 3 -5 6 6 6 11 1 17 -2 13 -5z m-1357
-54 c0 -5 -5 -10 -11 -10 -6 0 -49 -18 -95 -39 -46 -22 -84 -37 -84 -33 0 7
166 90 183 91 4 1 7 -3 7 -9z m-255 -29 c-6 -5 -21 -11 -35 -15 -21 -5 -20 -3
5 9 35 17 42 18 30 6z m1115 -21 c0 -5 -7 -10 -15 -10 -8 0 -15 5 -15 10 0 6
7 10 15 10 8 0 15 -4 15 -10z m-47 -17 c-7 -2 -19 -2 -25 0 -7 3 -2 5 12 5 14
0 19 -2 13 -5z m-1014 -27 c-2 -1 -19 -8 -36 -14 -37 -12 -45 -6 -10 8 22 9
54 13 46 6z m906 -26 c-3 -5 -11 -10 -16 -10 -6 0 -7 5 -4 10 3 6 11 10 16 10
6 0 7 -4 4 -10z m-155 -74 c0 -11 -19 -15 -25 -6 -3 5 1 10 9 10 9 0 16 -2 16
-4z m-870 -40 c0 -2 -7 -7 -16 -10 -8 -3 -12 -2 -9 4 6 10 25 14 25 6z m-50
-26 c-20 -13 -33 -13 -25 0 3 6 14 10 23 10 15 0 15 -2 2 -10z m513 -55 c-3
-9 -8 -14 -10 -11 -3 3 -2 9 2 15 9 16 15 13 8 -4z m67 -49 c0 -2 -7 -7 -16
-10 -8 -3 -12 -2 -9 4 6 10 25 14 25 6z m-70 -36 c0 -5 -4 -10 -10 -10 -5 0
-10 5 -10 10 0 6 5 10 10 10 6 0 10 -4 10 -10z m160 0 c0 -5 -4 -10 -10 -10
-5 0 -10 5 -10 10 0 6 5 10 10 10 6 0 10 -4 10 -10z m-195 -20 c-3 -5 -13 -10
-21 -10 -8 0 -12 5 -9 10 3 6 13 10 21 10 8 0 12 -4 9 -10z m-45 -19 c0 -5 -8
-11 -17 -15 -10 -3 -25 -9 -33 -12 -8 -4 -4 3 10 14 27 23 40 27 40 13z m-460
-100 c0 -5 -7 -12 -16 -15 -24 -9 -28 -7 -14 9 14 17 30 20 30 6z m315 -61
c-3 -5 -10 -10 -16 -10 -5 0 -9 5 -9 10 0 6 7 10 16 10 8 0 12 -4 9 -10z m-80
-40 c3 -5 -1 -10 -10 -10 -9 0 -13 5 -10 10 3 6 8 10 10 10 2 0 7 -4 10 -10z
m-360 -50 c-3 -5 -10 -10 -16 -10 -5 0 -9 5 -9 10 0 6 7 10 16 10 8 0 12 -4 9
-10z m-51 -25 c-7 -16 -24 -21 -24 -6 0 8 7 13 27 20 1 1 0 -6 -3 -14z m251
-23 c-3 -3 -11 0 -18 7 -9 10 -8 11 6 5 10 -3 15 -9 12 -12z m-38 2 c-3 -3
-12 -4 -19 -1 -8 3 -5 6 6 6 11 1 17 -2 13 -5z m-157 -39 c0 -11 -80 -57 -92
-52 -9 3 -6 7 7 13 11 4 22 10 25 13 15 17 60 37 60 26z m40 -114 c0 -11 -31
-24 -39 -16 -3 3 1 10 9 15 19 12 30 12 30 1z m-245 -91 c-27 -12 -43 -12 -25
0 8 5 22 9 30 9 10 0 8 -3 -5 -9z m258 3 c-7 -2 -19 -2 -25 0 -7 3 -2 5 12 5
14 0 19 -2 13 -5z m1777 -73 c12 -8 9 -10 -13 -10 -16 0 -26 4 -22 10 8 12 16
12 35 0z m-130 -75 c0 -8 -9 -15 -20 -15 -25 0 -26 17 -2 23 9 3 18 5 20 6 1
0 2 -6 2 -14z m-1900 -25 c0 -5 -4 -10 -10 -10 -5 0 -10 5 -10 10 0 6 5 10 10
10 6 0 10 -4 10 -10z m1740 -40 c0 -5 -18 -10 -40 -10 -22 0 -40 5 -40 10 0 6
18 10 40 10 22 0 40 -4 40 -10z m-1760 -70 c0 -5 -2 -10 -4 -10 -3 0 -8 5 -11
10 -3 6 -1 10 4 10 6 0 11 -4 11 -10z m-75 -46 c-8 -9 -20 -12 -26 -8 -9 5 -7
11 6 20 23 17 40 7 20 -12z m69 -51 c-16 -12 -30 -18 -32 -13 -2 6 -12 10 -23
10 -10 0 -19 7 -19 15 0 8 4 15 9 15 5 0 14 -7 21 -15 16 -19 30 -19 30 -1 0
16 20 26 34 18 5 -3 -4 -16 -20 -29z m1269 20 c-13 -2 -33 -2 -45 0 -13 2 -3
4 22 4 25 0 35 -2 23 -4z m-1168 -13 c3 -5 1 -10 -4 -10 -6 0 -11 5 -11 10 0
6 2 10 4 10 3 0 8 -4 11 -10z m-179 -47 c-3 -3 -13 -2 -23 2 -17 7 -17 8 2 15
19 7 34 -5 21 -17z m-54 -18 c0 -5 -5 -11 -11 -13 -6 -2 -11 4 -11 13 0 9 5
15 11 13 6 -2 11 -8 11 -13z m78 -20 c0 -8 -4 -15 -10 -15 -5 0 -10 7 -10 15
0 8 5 15 10 15 6 0 10 -7 10 -15z m770 -20 c0 -14 -4 -25 -10 -25 -5 0 -10 11
-10 25 0 14 5 25 10 25 6 0 10 -11 10 -25z m-37 -22 c-7 -17 -19 -17 -26 1 -7
18 14 40 24 24 4 -6 5 -17 2 -25z m-836 21 c-3 -3 -12 -4 -19 -1 -8 3 -5 6 6
6 11 1 17 -2 13 -5z m1100 0 c-3 -3 -12 -4 -19 -1 -8 3 -5 6 6 6 11 1 17 -2
13 -5z m-203 -63 c-11 -10 -22 -14 -25 -8 -4 5 -12 6 -18 2 -7 -4 -17 -3 -24
2 -7 5 -32 11 -57 12 -81 5 -56 11 45 11 96 0 98 0 79 -19z m-694 -32 c0 -6
-9 -9 -20 -6 -11 3 -20 2 -20 -1 0 -4 -18 -8 -40 -9 -54 -3 -51 15 3 20 23 2
50 4 60 5 9 1 17 -3 17 -9z m425 -39 c-3 -5 -15 -10 -25 -10 -10 0 -22 5 -25
10 -4 6 7 10 25 10 18 0 29 -4 25 -10z m-505 -10 c0 -5 -9 -10 -20 -10 -11 0
-20 5 -20 10 0 6 9 10 20 10 11 0 20 -4 20 -10z m-170 -12 c0 -4 -7 -8 -15 -8
-8 0 -15 4 -15 8 0 5 7 9 15 9 8 0 15 -4 15 -9z m290 2 c0 -5 8 -10 18 -10 14
0 15 -2 2 -10 -10 -6 -16 -6 -18 0 -2 6 -21 10 -43 10 -21 0 -39 5 -39 10 0 6
18 10 40 10 22 0 40 -4 40 -10z m-160 -20 c0 -5 -20 -10 -45 -10 -25 0 -45 5
-45 10 0 6 20 10 45 10 25 0 45 -4 45 -10z m303 3 c-13 -2 -33 -2 -45 0 -13 2
-3 4 22 4 25 0 35 -2 23 -4z m-123 -77 c0 -3 -4 -8 -10 -11 -5 -3 -10 -1 -10
4 0 6 5 11 10 11 6 0 10 -2 10 -4z"/>
<path d="M9923 5360 c0 -25 2 -35 4 -22 2 12 2 32 0 45 -2 12 -4 2 -4 -23z"/>
<path d="M9778 5203 c12 -2 32 -2 45 0 12 2 2 4 -23 4 -25 0 -35 -2 -22 -4z"/>
<path d="M9458 4963 c12 -2 32 -2 45 0 12 2 2 4 -23 4 -25 0 -35 -2 -22 -4z"/>
<path d="M9138 4563 c12 -2 30 -2 40 0 9 3 -1 5 -23 4 -22 0 -30 -2 -17 -4z"/>
<path d="M8720 4140 c0 -17 7 -20 40 -20 33 0 40 3 40 20 0 17 -7 20 -40 20
-33 0 -40 -3 -40 -20z"/>
<path d="M7980 3190 c0 -5 5 -10 10 -10 6 0 10 5 10 10 0 6 -4 10 -10 10 -5 0
-10 -4 -10 -10z"/>
<path d="M7658 2833 c7 -3 16 -2 19 1 4 3 -2 6 -13 5 -11 0 -14 -3 -6 -6z"/>
<path d="M5592 2344 c-7 -8 -10 -19 -7 -24 8 -13 42 -13 50 0 3 6 15 10 26 10
26 0 24 16 -3 24 -35 9 -52 7 -66 -10z"/>
<path d="M5525 2309 c-4 -6 -4 -13 -1 -16 8 -8 36 5 36 17 0 13 -27 13 -35 -1z"/>
<path d="M5448 2273 c7 -3 16 -2 19 1 4 3 -2 6 -13 5 -11 0 -14 -3 -6 -6z"/>
<path d="M5200 2260 c0 -5 5 -10 10 -10 6 0 10 5 10 10 0 6 -4 10 -10 10 -5 0
-10 -4 -10 -10z"/>
<path d="M5274 2259 c-3 -5 0 -9 6 -9 6 0 8 -5 5 -10 -5 -7 -11 -8 -19 -1 -6
6 -18 6 -25 2 -10 -6 -4 -11 20 -16 22 -5 34 -4 37 4 2 6 10 11 18 11 9 0 13
4 10 9 -8 13 -45 20 -52 10z"/>
<path d="M5404 2245 c-17 -13 -17 -14 -2 -15 9 0 19 4 23 10 3 5 13 7 23 4 14
-5 15 -4 2 5 -20 14 -23 14 -46 -4z"/>
<path d="M5200 2221 c0 -5 -11 -13 -25 -18 l-24 -8 24 -12 c15 -6 27 -7 31 -2
3 5 -3 9 -13 9 -15 0 -15 2 -3 9 8 6 26 8 40 7 14 -2 17 -1 8 1 -10 2 -18 9
-18 14 0 5 -4 9 -10 9 -5 0 -10 -4 -10 -9z"/>
<path d="M5350 2220 c0 -5 7 -10 15 -10 8 0 15 5 15 10 0 6 -7 10 -15 10 -8 0
-15 -4 -15 -10z"/>
<path d="M5505 2220 c-3 -5 -1 -10 4 -10 6 0 11 5 11 10 0 6 -2 10 -4 10 -3 0
-8 -4 -11 -10z"/>
<path d="M5016 2201 c-9 -13 35 -22 53 -10 13 8 11 9 -6 4 -14 -4 -23 -2 -23
4 0 13 -17 14 -24 2z"/>
<path d="M5318 2203 c7 -3 16 -2 19 1 4 3 -2 6 -13 5 -11 0 -14 -3 -6 -6z"/>
<path d="M4968 2173 c7 -3 16 -2 19 1 4 3 -2 6 -13 5 -11 0 -14 -3 -6 -6z"/>
<path d="M5110 2165 c-9 -10 -9 -15 -1 -15 6 0 11 5 11 10 0 6 12 8 28 5 22
-4 24 -4 7 4 -28 13 -31 13 -45 -4z"/>
<path d="M5277 2169 c7 -7 15 -10 18 -7 3 3 -2 9 -12 12 -14 6 -15 5 -6 -5z"/>
<path d="M5235 2160 c3 -5 8 -10 11 -10 2 0 4 5 4 10 0 6 -5 10 -11 10 -5 0
-7 -4 -4 -10z"/>
<path d="M4698 2123 c-19 -10 -20 -12 -5 -13 9 0 17 -5 17 -11 0 -7 -10 -9
-27 -4 -26 6 -27 5 -11 -11 12 -12 21 -14 30 -7 7 6 27 15 43 22 29 11 29 11
3 6 -21 -4 -28 -1 -28 10 0 15 19 15 68 -1 6 -2 12 2 12 9 0 16 -73 17 -102 0z"/>
<path d="M5030 2130 c-18 -12 -2 -12 25 0 13 6 15 9 5 9 -8 0 -22 -4 -30 -9z"/>
<path d="M4460 2078 c-41 -21 -88 -46 -105 -55 -16 -10 -32 -18 -35 -19 -48
-15 -51 -17 -38 -26 9 -7 5 -8 -14 -5 -18 3 -34 -3 -47 -14 -11 -11 -25 -19
-31 -19 -5 0 -10 -5 -10 -11 0 -6 -6 -9 -14 -6 -8 3 -13 -1 -12 -11 1 -13 -7
-17 -34 -17 -19 0 -51 -10 -71 -23 -20 -12 -43 -22 -50 -22 -10 -1 -8 -5 5
-15 11 -8 27 -14 35 -14 13 1 12 2 -1 6 -21 5 -24 23 -4 23 8 0 16 5 18 11 2
5 24 13 48 15 53 7 91 20 145 52 35 21 37 23 13 19 -16 -2 -25 0 -21 6 3 5 24
6 47 3 29 -4 37 -3 26 4 -13 8 -13 10 2 10 10 0 34 9 55 19 37 19 121 58 173
81 14 6 36 18 50 26 l25 16 -24 -6 c-13 -3 -31 -2 -40 2 -10 5 -44 -6 -91 -30z
m97 6 c-3 -3 -12 -4 -19 -1 -8 3 -5 6 6 6 11 1 17 -2 13 -5z m-52 -14 c-3 -5
-10 -10 -16 -10 -5 0 -9 5 -9 10 0 6 7 10 16 10 8 0 12 -4 9 -10z m-85 -34 c0
-2 -7 -7 -16 -10 -8 -3 -12 -2 -9 4 6 10 25 14 25 6z"/>
<path d="M4880 2099 c0 -5 5 -7 10 -4 6 3 10 8 10 11 0 2 -4 4 -10 4 -5 0 -10
-5 -10 -11z"/>
<path d="M4815 2090 c3 -5 13 -10 21 -10 8 0 14 5 14 10 0 6 -9 10 -21 10 -11
0 -17 -4 -14 -10z"/>
<path d="M4768 2083 c-10 -2 -18 -9 -18 -14 0 -14 20 -11 36 6 16 15 13 16
-18 8z"/>
<path d="M4600 2062 c8 -3 22 -8 30 -12 9 -5 20 -2 27 5 9 10 3 12 -30 12 -23
0 -35 -2 -27 -5z"/>
<path d="M4545 2043 c-19 -13 -18 -14 9 -9 34 6 41 12 24 19 -8 2 -23 -2 -33
-10z"/>
<path d="M4870 2050 c-9 -6 -10 -10 -3 -10 6 0 15 5 18 10 8 12 4 12 -15 0z"/>
<path d="M4570 2020 c-8 -5 -12 -11 -10 -14 3 -2 14 2 24 10 22 15 10 19 -14
4z"/>
<path d="M4442 1987 c-36 -16 -41 -22 -28 -29 9 -5 22 -7 29 -4 7 2 3 5 -8 5
-17 1 -15 4 9 16 15 8 40 13 55 10 14 -3 19 -2 11 1 -8 4 -17 10 -20 14 -3 5
-25 -1 -48 -13z"/>
<path d="M4595 1990 c-3 -6 1 -7 9 -4 18 7 21 14 7 14 -6 0 -13 -4 -16 -10z"/>
<path d="M4555 1970 c-3 -6 1 -7 9 -4 18 7 21 14 7 14 -6 0 -13 -4 -16 -10z"/>
<path d="M4595 1960 c-3 -6 1 -7 9 -4 18 7 21 14 7 14 -6 0 -13 -4 -16 -10z"/>
<path d="M4340 1929 c0 -5 5 -7 10 -4 6 3 10 8 10 11 0 2 -4 4 -10 4 -5 0 -10
-5 -10 -11z"/>
<path d="M4385 1930 c-3 -5 -1 -10 4 -10 6 0 11 5 11 10 0 6 -2 10 -4 10 -3 0
-8 -4 -11 -10z"/>
<path d="M4453 1916 c-22 -10 -31 -26 -15 -26 10 1 46 29 41 33 -2 2 -14 -2
-26 -7z"/>
<path d="M4300 1916 c0 -2 7 -6 15 -10 8 -3 15 -1 15 4 0 6 -7 10 -15 10 -8 0
-15 -2 -15 -4z"/>
<path d="M4118 1903 c7 -3 16 -2 19 1 4 3 -2 6 -13 5 -11 0 -14 -3 -6 -6z"/>
<path d="M4275 1900 c-3 -5 -1 -10 4 -10 6 0 11 5 11 10 0 6 -2 10 -4 10 -3 0
-8 -4 -11 -10z"/>
<path d="M4225 1850 c-3 -5 -1 -10 4 -10 6 0 11 5 11 10 0 6 -2 10 -4 10 -3 0
-8 -4 -11 -10z"/>
<path d="M4148 1833 c7 -3 16 -2 19 1 4 3 -2 6 -13 5 -11 0 -14 -3 -6 -6z"/>
<path d="M3960 1823 c8 -3 24 -10 35 -15 20 -9 20 -9 1 6 -11 9 -27 16 -35 15
-14 0 -14 -1 -1 -6z"/>
<path d="M4275 1820 c-3 -5 -1 -10 4 -10 6 0 11 5 11 10 0 6 -2 10 -4 10 -3 0
-8 -4 -11 -10z"/>
<path d="M3904 1803 c-16 -12 -15 -13 16 -8 19 3 28 2 20 -2 -30 -16 -60 -38
-60 -45 0 -3 20 5 45 19 25 13 45 28 45 33 0 14 -47 17 -66 3z"/>
<path d="M4065 1800 c-8 -13 5 -13 25 0 13 8 13 10 -2 10 -9 0 -20 -4 -23 -10z"/>
<path d="M3894 1715 c-12 -8 -48 -28 -80 -45 -32 -16 -53 -30 -45 -30 14 0 83
30 91 40 3 4 12 10 20 14 41 19 64 36 50 36 -9 0 -25 -7 -36 -15z"/>
<path d="M3788 1703 c7 -3 16 -2 19 1 4 3 -2 6 -13 5 -11 0 -14 -3 -6 -6z"/>
<path d="M3915 1690 c-3 -5 -2 -10 4 -10 5 0 13 5 16 10 3 6 2 10 -4 10 -5 0
-13 -4 -16 -10z"/>
<path d="M3788 1623 c7 -3 16 -2 19 1 4 3 -2 6 -13 5 -11 0 -14 -3 -6 -6z"/>
<path d="M3700 1611 c0 -5 -8 -11 -17 -13 -12 -2 -14 -6 -7 -10 6 -4 19 1 29
12 10 12 13 20 7 20 -7 0 -12 -4 -12 -9z"/>
<path d="M3735 1600 c-10 -12 -13 -20 -7 -20 7 0 12 4 12 9 0 5 8 11 18 13 11
2 13 6 6 10 -6 4 -19 -1 -29 -12z"/>
<path d="M3635 1580 c-3 -6 1 -10 9 -10 9 0 16 -4 16 -10 0 -5 5 -10 10 -10
16 0 11 14 -10 27 -12 8 -21 9 -25 3z"/>
<path d="M3595 1560 c-3 -5 0 -10 9 -10 8 0 16 -6 19 -12 4 -10 7 -10 18 0 11
10 10 12 -4 12 -9 0 -17 5 -17 10 0 6 -4 10 -9 10 -6 0 -13 -4 -16 -10z"/>
<path d="M3550 1531 c0 -13 49 -20 57 -8 3 5 1 7 -5 3 -6 -3 -13 -2 -17 4 -8
12 -35 13 -35 1z"/>
<path d="M3500 1505 c-14 -8 -30 -14 -36 -15 -6 0 -37 -16 -69 -35 -32 -19
-74 -40 -94 -46 -20 -7 -38 -15 -41 -18 -3 -3 -14 -11 -25 -18 -11 -6 -19 -17
-17 -24 2 -7 -3 -16 -10 -20 -7 -4 -9 -11 -5 -16 4 -4 17 -2 27 5 11 7 27 12
35 12 8 0 15 4 15 8 0 4 17 14 37 21 46 17 86 51 60 51 -9 0 -17 5 -17 11 0 8
13 9 39 5 28 -4 42 -2 51 9 9 10 9 15 1 15 -6 0 -11 7 -11 15 0 11 5 12 25 5
20 -7 25 -6 25 5 0 18 27 20 33 3 2 -7 8 -9 13 -5 5 4 2 12 -6 18 -13 8 -13
10 0 19 23 15 -2 11 -30 -5z m-60 -65 c0 -5 -7 -10 -16 -10 -8 0 -12 5 -9 10
3 6 10 10 16 10 5 0 9 -4 9 -10z m-80 -40 c0 -5 -12 -10 -27 -10 -22 0 -25 2
-13 10 20 13 40 13 40 0z m-60 -14 c0 -2 -7 -9 -15 -16 -13 -11 -14 -10 -9 4
5 14 24 23 24 12z"/>
<path d="M3678 1513 c7 -3 16 -2 19 1 4 3 -2 6 -13 5 -11 0 -14 -3 -6 -6z"/>
<path d="M3678 1483 c7 -3 16 -2 19 1 4 3 -2 6 -13 5 -11 0 -14 -3 -6 -6z"/>
<path d="M3580 1460 c-9 -6 -10 -10 -3 -10 6 0 15 5 18 10 8 12 4 12 -15 0z"/>
<path d="M3510 1430 c-8 -5 -11 -12 -8 -15 4 -4 17 0 30 9 24 17 5 23 -22 6z"/>
<path d="M3518 1393 c7 -3 16 -2 19 1 4 3 -2 6 -13 5 -11 0 -14 -3 -6 -6z"/>
<path d="M3385 1367 c-10 -7 -26 -18 -35 -26 -13 -13 -13 -14 0 -9 41 17 70
34 70 41 0 10 -11 8 -35 -6z"/>
<path d="M3455 1370 c-8 -13 5 -13 25 0 13 8 13 10 -2 10 -9 0 -20 -4 -23 -10z"/>
<path d="M3538 1363 c-10 -2 -18 -9 -18 -14 0 -6 10 -5 23 2 37 20 36 23 -5
12z"/>
<path d="M3538 1323 c7 -3 16 -2 19 1 4 3 -2 6 -13 5 -11 0 -14 -3 -6 -6z"/>
<path d="M3328 1313 c12 -2 30 -2 40 0 9 3 -1 5 -23 4 -22 0 -30 -2 -17 -4z"/>
<path d="M3230 1282 c-25 -14 -47 -27 -50 -29 -7 -6 23 -23 40 -22 10 0 8 3
-5 9 -20 8 -19 9 1 9 12 1 27 8 34 16 7 8 16 13 20 10 4 -2 15 2 25 9 17 12
17 13 -1 18 -10 3 -39 -6 -64 -20z"/>
<path d="M3468 1293 c7 -3 16 -2 19 1 4 3 -2 6 -13 5 -11 0 -14 -3 -6 -6z"/>
<path d="M3436 1277 c3 -10 9 -15 12 -12 3 3 0 11 -7 18 -10 9 -11 8 -5 -6z"/>
<path d="M3266 1251 c-3 -5 1 -11 9 -14 9 -4 12 -1 8 9 -6 16 -10 17 -17 5z"/>
<path d="M3128 1233 c6 -2 18 -2 25 0 6 3 1 5 -13 5 -14 0 -19 -2 -12 -5z"/>
<path d="M3368 1233 c7 -3 16 -2 19 1 4 3 -2 6 -13 5 -11 0 -14 -3 -6 -6z"/>
<path d="M3160 1210 c0 -5 5 -10 10 -10 6 0 10 5 10 10 0 6 -4 10 -10 10 -5 0
-10 -4 -10 -10z"/>
<path d="M3338 1213 c7 -3 16 -2 19 1 4 3 -2 6 -13 5 -11 0 -14 -3 -6 -6z"/>
<path d="M3280 1196 c0 -9 5 -16 10 -16 6 0 10 4 10 9 0 6 -4 13 -10 16 -5 3
-10 -1 -10 -9z"/>
<path d="M3208 1183 c7 -3 16 -2 19 1 4 3 -2 6 -13 5 -11 0 -14 -3 -6 -6z"/>
<path d="M3198 1158 c5 -5 16 -8 23 -6 8 3 3 7 -10 11 -17 4 -21 3 -13 -5z"/>
<path d="M3248 1163 c6 -2 18 -2 25 0 6 3 1 5 -13 5 -14 0 -19 -2 -12 -5z"/>
<path d="M3150 1150 c0 -5 4 -10 9 -10 6 0 13 5 16 10 3 6 -1 10 -9 10 -9 0
-16 -4 -16 -10z"/>
<path d="M3120 1130 c0 -5 5 -10 10 -10 6 0 10 5 10 10 0 6 -4 10 -10 10 -5 0
-10 -4 -10 -10z"/>
<path d="M3280 1110 c0 -5 7 -10 15 -10 8 0 15 5 15 10 0 6 -7 10 -15 10 -8 0
-15 -4 -15 -10z"/>
<path d="M3050 1098 c-24 -10 -24 -10 -5 -18 19 -7 19 -7 -2 -14 -13 -4 -23
-12 -23 -17 0 -5 -7 -9 -15 -9 -8 0 -15 5 -15 10 0 13 -21 13 -40 -1 -11 -8
-12 -12 -2 -16 6 -2 12 -11 12 -19 0 -20 23 -17 43 6 9 11 28 20 42 20 14 0
28 7 31 15 4 8 16 15 28 16 20 0 20 1 1 9 -17 7 -17 9 -2 9 9 1 17 6 17 11 0
13 -38 12 -70 -2z"/>
<path d="M3198 1083 c7 -3 16 -2 19 1 4 3 -2 6 -13 5 -11 0 -14 -3 -6 -6z"/>
<path d="M3205 1060 c-3 -5 -1 -10 4 -10 6 0 11 5 11 10 0 6 -2 10 -4 10 -3 0
-8 -4 -11 -10z"/>
<path d="M3108 1041 c-10 -10 -18 -21 -18 -24 0 -14 23 -7 36 11 26 34 12 44
-18 13z"/>
<path d="M3040 989 c0 -22 13 -25 29 -5 9 11 7 15 -9 19 -15 4 -20 0 -20 -14z"/>
<path d="M4458 993 c7 -3 16 -2 19 1 4 3 -2 6 -13 5 -11 0 -14 -3 -6 -6z"/>
<path d="M2960 970 c0 -5 -7 -10 -15 -10 -7 0 -18 -6 -22 -13 -4 -8 -16 -16
-25 -20 -10 -3 -18 -16 -18 -28 0 -16 4 -19 18 -14 9 4 27 10 40 12 12 3 22
10 22 15 0 5 10 18 22 27 12 10 18 23 14 29 -9 15 -36 16 -36 2z"/>
<path d="M3085 910 c3 -5 13 -10 21 -10 8 0 14 5 14 10 0 6 -9 10 -21 10 -11
0 -17 -4 -14 -10z"/>
<path d="M3029 885 c-4 -4 -24 -9 -58 -14 -3 -1 0 -6 5 -11 12 -12 64 6 64 22
0 9 -4 10 -11 3z"/>
<path d="M4060 880 c0 -5 5 -10 10 -10 6 0 10 5 10 10 0 6 -4 10 -10 10 -5 0
-10 -4 -10 -10z"/>
<path d="M3108 843 c7 -3 16 -2 19 1 4 3 -2 6 -13 5 -11 0 -14 -3 -6 -6z"/>
<path d="M3820 840 c-12 -8 -10 -10 8 -10 13 0 20 4 17 10 -7 12 -6 12 -25 0z"/>
<path d="M3040 808 c0 -29 2 -31 15 -17 9 9 13 23 9 32 -10 28 -24 19 -24 -15z"/>
<path d="M3578 833 c7 -3 16 -2 19 1 4 3 -2 6 -13 5 -11 0 -14 -3 -6 -6z"/>
<path d="M3740 776 c0 -8 5 -18 10 -21 6 -3 10 3 10 14 0 12 -4 21 -10 21 -5
0 -10 -6 -10 -14z"/>
<path d="M3848 763 c6 -2 18 -2 25 0 6 3 1 5 -13 5 -14 0 -19 -2 -12 -5z"/>
<path d="M3360 749 c0 -5 5 -7 10 -4 6 3 10 8 10 11 0 2 -4 4 -10 4 -5 0 -10
-5 -10 -11z"/>
<path d="M3425 750 c3 -5 8 -10 11 -10 2 0 4 5 4 10 0 6 -5 10 -11 10 -5 0 -7
-4 -4 -10z"/>
<path d="M3665 740 c-10 -11 -13 -20 -7 -20 7 0 21 9 32 20 14 14 16 20 7 20
-8 0 -22 -9 -32 -20z"/>
<path d="M3138 713 c12 -2 32 -2 45 0 12 2 2 4 -23 4 -25 0 -35 -2 -22 -4z"/>
<path d="M3085 670 c3 -5 13 -10 21 -10 8 0 14 5 14 10 0 6 -9 10 -21 10 -11
0 -17 -4 -14 -10z"/>
<path d="M3163 673 c9 -2 23 -2 30 0 6 3 -1 5 -18 5 -16 0 -22 -2 -12 -5z"/>
<path d="M3040 640 c0 -19 20 -27 33 -13 8 7 -11 33 -24 33 -5 0 -9 -9 -9 -20z"/>
</g>
</svg>
